Coordinates
version=1
nRows=10
nColumns=63
inDegrees=yes

Units are S.I. units (second, meters, Newtons, ...)
If the header above contains a line with 'inDegrees', this indicates whether rotational values are in degrees (yes) or radians (no).

endheader
time	pelvis_tilt	pelvis_list	pelvis_rotation	pelvis_tx	pelvis_ty	pelvis_tz	hip_flexion_r	hip_adduction_r	hip_rotation_r	knee_angle_r	knee_angle_r_beta	ankle_angle_r	subtalar_angle_r	mtp_angle_r	hip_flexion_l	hip_adduction_l	hip_rotation_l	knee_angle_l	knee_angle_l_beta	ankle_angle_l	subtalar_angle_l	mtp_angle_l	L5_S1_Flex_Ext	L5_S1_Lat_Bending	L5_S1_axial_rotation	L4_L5_Flex_Ext	L4_L5_Lat_Bending	L4_L5_axial_rotation	L3_L4_Flex_Ext	L3_L4_Lat_Bending	L3_L4_axial_rotation	L2_L3_Flex_Ext	L2_L3_Lat_Bending	L2_L3_axial_rotation	L1_L2_Flex_Ext	L1_L2_Lat_Bending	L1_L2_axial_rotation	L1_T12_Flex_Ext	L1_T12_Lat_Bending	L1_T12_axial_rotation	Abs_r3	Abs_r2	Abs_r1	Abs_t1	Abs_t2	neck_flexion	neck_bending	neck_rotation	arm_flex_r	arm_add_r	arm_rot_r	elbow_flex_r	pro_sup_r	wrist_flex_r	wrist_dev_r	arm_flex_l	arm_add_l	arm_rot_l	elbow_flex_l	pro_sup_l	wrist_flex_l	wrist_dev_l
      1.08510638	     -1.98487312	     -8.89592400	    108.65796673	      0.08002282	      1.04019500	      0.49484038	      5.19161111	     -5.28793193	    -21.78630509	     13.67591275	      0.23868971	     35.86828054	     15.10534452	      0.00000000	      8.68959762	      3.16176875	      1.59269528	     13.52717158	      0.23609368	     35.80324407	     13.25193683	      0.00000000	     -0.11280101	     -0.64542327	     -1.60641695	     -0.20948276	     -0.85841295	     -1.70681801	     -0.18532078	     -1.56928214	     -1.70681801	     -0.12892028	     -1.56928214	     -1.40561483	     -0.10474702	     -1.31614713	     -1.30521377	     -0.06445450	     -0.99976065	     -1.20481271	     -0.80572635	     -7.30115712	     -8.93440917	      0.00000000	      0.00000000	     23.09625634	      3.15839942	     10.27102244	     -6.59016975	    -30.64100615	     43.66379550	     66.52570745	     89.16258732	     -9.53829521	     -4.95715920	     -8.00319378	    -20.43047706	     31.17143773	     79.13859330	     89.19160457	      4.93462159	      2.60106052
      1.10638298	     -2.26400425	     -8.98506155	    109.06933078	      0.07818235	      1.03999163	      0.49506548	      5.58555779	     -6.03167685	    -23.05371613	     14.75741029	      0.25756540	     36.42336973	     16.01973549	      0.00000000	      8.42869882	      3.74775880	      3.51040611	     13.12173616	      0.22901750	     35.43951602	     11.48946347	      0.00000000	     -0.13564149	     -0.70940505	     -1.67090349	     -0.25189981	     -0.94350871	     -1.77533496	     -0.22284541	     -1.72484743	     -1.77533496	     -0.15502466	     -1.72484743	     -1.46204055	     -0.12595669	     -1.44661877	     -1.35760909	     -0.07750555	     -1.09886842	     -1.25317762	     -0.96887361	     -8.02493176	     -9.29306395	      0.00000000	      0.00000000	     22.30980848	      3.08077598	     10.56345295	     -4.66236950	    -33.06597589	     49.76402613	     67.13935421	     89.23666975	    -12.50912223	     -6.62104545	     -6.82870248	    -20.38422060	     32.23886425	     78.07036915	     89.37807933	     -1.35590497	     -2.92915025
      1.12765957	     -2.63446841	     -8.91138872	    108.94476306	      0.07684469	      1.04004538	      0.49475094	      5.83959035	     -6.69197564	    -23.22374090	     15.75074812	      0.27490241	     36.86547946	     16.13983835	      0.00000000	      8.18695277	      4.19894691	      3.92022523	     13.22842158	      0.23087951	     35.36389353	     10.78009027	      0.00000000	     -0.17157263	     -0.76587613	     -1.70005038	     -0.31862753	     -1.01861525	     -1.80630353	     -0.28187667	     -1.86215123	     -1.80630353	     -0.19609036	     -1.86215123	     -1.48754408	     -0.15932234	     -1.56177461	     -1.38129093	     -0.09803660	     -1.18634213	     -1.27503779	     -1.22552614	     -8.66374398	     -9.45517021	      0.00000000	      0.00000000	     21.15781770	      2.99418958	     11.34804352	     -2.05283451	    -35.35930709	     56.05485576	     68.31952319	     89.25212887	    -13.85571755	     -6.13137260	     -5.56695085	    -19.93701760	     33.46625743	     75.82666646	     89.47604730	     -9.48924853	    -11.02979583
      1.14893617	     -2.85861977	     -8.96135341	    109.10519815	      0.07476841	      1.03975814	      0.49403797	      6.12612210	     -7.23752611	    -23.45827386	     16.73228939	      0.29203354	     37.23635574	     15.81073758	      0.00000000	      8.37770802	      4.50245768	      3.68189772	     13.91443993	      0.24285279	     35.67092313	     11.12135244	      0.00000000	     -0.18103883	     -0.79285960	     -1.67094099	     -0.33620720	     -1.05450327	     -1.77537480	     -0.29742869	     -1.92775884	     -1.77537480	     -0.20690927	     -1.92775884	     -1.46207336	     -0.16811265	     -1.61679930	     -1.35763955	     -0.10344559	     -1.22813953	     -1.25320574	     -1.29314223	     -8.96898640	     -9.29327248	      0.00000000	      0.00000000	     19.71460597	      2.74713220	     12.06125266	     -1.06893557	    -37.14116370	     59.38573852	     69.66632384	     89.24495142	    -13.87316735	     -5.94184677	     -3.28243850	    -19.35745642	     36.49418899	     72.36746778	     89.51544584	    -18.82696173	    -19.88930579
      1.17021277	     -3.19741667	     -9.01965722	    108.96166964	      0.07291296	      1.03914001	      0.49277167	      6.38320576	     -7.83571782	    -23.17000655	     17.74410880	      0.30969312	     37.55619375	     15.12637148	      0.00000000	      8.73191281	      4.82167908	      2.63876151	     15.06609833	      0.26295302	     36.31102148	     12.01650795	      0.00000000	     -0.19795797	     -0.82137098	     -1.56878937	     -0.36762774	     -1.09242340	     -1.66683871	     -0.32522514	     -1.99708140	     -1.66683871	     -0.22624616	     -1.99708140	     -1.37269070	     -0.18382377	     -1.67493970	     -1.27464137	     -0.11311318	     -1.27230364	     -1.17659203	     -1.41399396	     -9.29151277	     -8.72513586	      0.00000000	      0.00000000	     18.51474465	      2.57535959	     12.44165144	     -1.06287976	    -38.40454333	     60.59097878	     71.09131977	     89.22084849	    -13.09791847	     -5.26964463	     -1.69534129	    -18.73771453	     38.10346032	     70.31392179	     89.53694974	    -23.07617911	    -22.29085912
      1.19148936	     -3.56725387	     -9.16110101	    108.56506971	      0.07126353	      1.03815293	      0.49094047	      6.73433509	     -8.39203727	    -22.29863014	     18.73512608	      0.32698964	     37.77350909	     13.91454737	      0.00000000	      9.20507472	      5.11718517	      1.18278851	     16.33420344	      0.28508563	     37.05661135	     13.24622126	      0.00000000	     -0.20543618	     -0.84180430	     -1.37287046	     -0.38151553	     -1.11959972	     -1.45867487	     -0.33751110	     -2.04676298	     -1.45867487	     -0.23479301	     -2.04676298	     -1.20126165	     -0.19076804	     -1.71660733	     -1.11545725	     -0.11738623	     -1.30395486	     -1.02965285	     -1.46741008	     -9.52265862	     -7.63549364	      0.00000000	      0.00000000	     17.57841073	      2.48492887	     12.57141891	     -2.31959558	    -39.19302486	     59.53408335	     72.46234146	     89.19022257	    -11.95928614	     -4.36329232	     -0.64367410	    -18.11673538	     39.48968118	     68.85169783	     89.54468688	    -24.98472437	    -22.84523839
      1.21276596	     -4.06936431	     -9.40728540	    107.92547177	      0.06997067	      1.03691966	      0.48866219	      7.23081508	     -9.00781501	    -20.82711398	     19.74095278	      0.34454462	     37.93709034	     12.17140479	      0.00000000	      9.62826454	      5.52719635	     -0.35227961	     17.32276780	      0.30233933	     37.66203758	     14.53388607	      0.00000000	     -0.20586365	     -0.86624497	     -1.05803750	     -0.38230938	     -1.15210581	     -1.12416485	     -0.33821339	     -2.10618802	     -1.12416485	     -0.23528156	     -2.10618802	     -0.92578282	     -0.19116498	     -1.76644675	     -0.85965547	     -0.11763049	     -1.34181346	     -0.79352813	     -1.47046345	     -9.79913637	     -5.88448719	      0.00000000	      0.00000000	     17.14193416	      2.31924475	     12.34632592	     -4.75917070	    -39.41694283	     56.66834491	     73.65825748	     89.16077482	    -10.67283370	     -3.39269760	      0.24294406	    -17.68085839	     41.57155361	     67.54808350	     89.53968439	    -25.91140731	    -22.97109052
      1.23404255	     -4.68147343	     -9.73300639	    107.05613039	      0.06907703	      1.03542602	      0.48597703	      7.80425961	     -9.66733668	    -19.06710122	     20.65346452	      0.36047096	     38.04076227	     10.39963397	      0.00000000	     10.00348090	      6.07708990	     -1.65839521	     18.03503778	      0.31477079	     38.15598276	     15.38625770	      0.00000000	     -0.19147313	     -0.88750877	     -0.63786026	     -0.35558474	     -1.18038666	     -0.67772653	     -0.31457120	     -2.15788881	     -0.67772653	     -0.21883464	     -2.15788881	     -0.55812773	     -0.17780194	     -1.80980788	     -0.51826146	     -0.10940774	     -1.37475108	     -0.47839520	     -1.36767339	    -10.03967666	     -3.54758743	      0.00000000	      0.00000000	     17.04715618	      2.19825788	     12.16033205	     -7.82572495	    -39.09953837	     53.13821653	     74.56156986	     89.12827259	     -9.92943291	     -2.72028578	      0.76244871	    -17.52632086	     43.92592725	     66.61395054	     89.51782081	    -26.37927407	    -22.87299851
      1.25531915	     -5.41000076	    -10.08202399	    106.14969034	      0.06827679	      1.03374630	      0.48301693	      8.34949730	    -10.38713656	    -17.21317288	     21.47941599	      0.37488653	     38.13307319	      8.65835998	      0.00000000	     10.33524278	      6.75229300	     -2.94065039	     18.61359652	      0.32486854	     38.63868613	     16.04598597	      0.00000000	     -0.16118510	     -0.89616390	     -0.18643485	     -0.29933685	     -1.19189798	     -0.19808703	     -0.26481100	     -2.17893290	     -0.19808703	     -0.18421845	     -2.17893290	     -0.16313049	     -0.14967648	     -1.82745742	     -0.15147831	     -0.09210117	     -1.38815788	     -0.13982614	     -1.15132904	    -10.13758523	     -1.03689470	      0.00000000	      0.00000000	     17.15378511	      2.07301195	     12.00640097	    -10.90104337	    -38.49415443	     49.46319456	     75.26002716	     89.05147174	     -9.15736199	     -2.65200829	      0.48423451	    -17.98396747	     45.32955253	     66.72882084	     89.49924785	    -25.94023353	    -22.50926762
      1.27659574	     -6.20706953	    -10.31671757	    105.70419674	      0.06668149	      1.03221431	      0.48035357	      8.55991799	    -11.30506538	    -16.49448832	     22.19517849	      0.38737894	     38.45082804	      8.02812579	      0.00000000	     10.64628113	      7.58294815	     -3.53870572	     19.39817621	      0.33856204	     39.11572217	     16.19449683	      0.00000000	     -0.12844289	     -0.87450937	      0.07274442	     -0.23853129	     -1.16309746	      0.07729094	     -0.21101883	     -2.12628207	      0.07729094	     -0.14679738	     -2.12628207	      0.06365136	     -0.11927207	     -1.78329950	      0.05910484	     -0.07339227	     -1.35461501	      0.05455831	     -0.91745473	     -9.89262486	      0.40458262	      0.00000000	      0.00000000	     17.25713282	      1.98797683	     12.23910771	    -12.72267979	    -38.32935185	     46.78322215	     76.13214648	     88.74286062	     -8.82656233	     -3.24854670	     -1.32653638	    -19.24485413	     44.25479734	     68.44196359	     89.47968463	    -25.66847078	    -21.75342584
